<?xml version="1.0" encoding="utf-8"?>
<!-- Generator: Adobe Illustrator 19.0.0, SVG Export Plug-In . SVG Version: 6.00 Build 0)  -->
<svg version="1.1" id="Layer_1" xmlns="http://www.w3.org/2000/svg" xmlns:xlink="http://www.w3.org/1999/xlink" x="0px" y="0px"
	 viewBox="0 0 595.3 841.9" style="enable-background:new 0 0 595.3 841.9;" xml:space="preserve">
<style type="text/css">
	.st0{fill:#FFFFFF;stroke:#000000;stroke-width:2;stroke-miterlimit:10;}
	.st1{stroke:#000000;stroke-width:2;stroke-miterlimit:10;}
	.st2{fill:#36A9E1;}
	.st3{font-family:'CrimsonText-Roman';}
	.st4{font-size:58.8663px;}
	.st5{fill:#FFED00;stroke:#000000;stroke-miterlimit:10;}
	.st6{font-family:'CurlzMT';}
	.st7{font-size:82.9386px;}
</style>
<path id="XMLID_46_" class="st0" d="M507,294.5c0-14.4-11.6-26-26-26H114.3c-14.4,0-26,11.6-26,26v211.1H507V294.5z"/>
<path id="XMLID_48_" class="st1" d="M114.3,572.1H481c14.4,0,26-11.6,26-26v-40.5H88.3v40.5C88.3,560.5,100,572.1,114.3,572.1z"/>
<text id="XMLID_13_" transform="matrix(1 0 0 1 117.7347 552.1116)" class="st2 st3 st4">WAREHOUSE</text>
<g id="XMLID_10_">
	<path id="XMLID_26_" d="M128.7,492V285.2h-9.4c-1-0.7-1.6-1.3-1.6-1.8c0-0.5,0.5-1,1.6-1.7h42c12.9,0,23.5,4.5,31.7,13.4
		c8.2,8.9,12.3,21.4,12.3,37.6c0,9.9-1.4,18.4-4.2,25.5c-2.8,7.2-7.1,13.2-13,18c-3.7,3-9.3,5.9-16.8,8.7c7.8,2.8,13.5,5.7,17.2,8.7
		c5.9,4.8,10.3,10.7,13.4,17.6c3,6.9,4.5,15.3,4.5,25.4c0,13-2.2,24.5-6.7,34.6c-3,7-8,12.9-14.9,17.6c-6.9,4.7-15.2,7-24.9,7h-40.6
		c-1-0.6-1.6-1.2-1.6-1.8s0.5-1.1,1.6-1.8H128.7z M157.9,285.3V383h7.6c3.4,0,6-0.9,7.7-2.6c1.7-1.7,2.5-4.5,2.5-8.5v-74.2
		c0-4.8-0.9-8.1-2.6-9.9s-5.1-2.6-10-2.6H157.9z M157.9,386.7v105.1h4.6c4,0,7.2-1.1,9.6-3.4c2.4-2.3,3.6-5.4,3.6-9.2v-82.7
		c0-3.5-0.7-6-2.1-7.5c-1.4-1.5-3.6-2.3-6.5-2.3H157.9z"/>
	<path id="XMLID_40_" d="M383.7,285.2h-8.5c-0.6,0-1-0.2-1.4-0.5c-0.3-0.3-0.5-0.8-0.5-1.3c0-0.5,0.2-1,0.5-1.3
		c0.3-0.3,0.8-0.5,1.3-0.5h46.7c0.9,0.6,1.4,1.2,1.4,1.8c0,0.5-0.5,1.1-1.4,1.8h-9V389l32.6-79c2-4.7,3-9.1,3-12.9
		c0-3.2-0.6-5.8-1.9-7.7c-1.2-1.9-3-3.2-5.3-3.8l-5.4-0.4c-0.7-0.4-1-0.9-1-1.7c0-0.6,0.2-1,0.5-1.4c0.3-0.3,0.7-0.5,1.2-0.5h35
		c0.5,0,0.9,0.2,1.2,0.5c0.3,0.3,0.5,0.8,0.5,1.4c0,0.8-0.3,1.3-0.9,1.6l-6.8,0.7c-3.3,1-6.2,3.4-8.6,7s-5.9,10.9-10.3,21.9
		l-14.6,35.4L469.5,492h6.4c0.5,0,0.9,0.2,1.2,0.5c0.3,0.3,0.5,0.8,0.5,1.3s-0.2,1-0.5,1.3c-0.3,0.3-0.7,0.5-1.2,0.5h-45.4
		c-0.9-0.6-1.3-1.2-1.3-1.8c0-0.6,0.4-1.2,1.3-1.8h9.4l-27-99.2V492h8.8c0.6,0,1,0.2,1.3,0.5c0.3,0.3,0.5,0.8,0.5,1.3
		s-0.2,1-0.5,1.3c-0.3,0.3-0.8,0.5-1.3,0.5h-46.5l-0.6-0.3c-0.3-0.4-0.4-0.9-0.4-1.5c0-0.6,0.3-1.2,1-1.8h8.5V285.2z"/>
</g>
<g id="XMLID_1_">
	<path id="XMLID_152_" d="M282.2,494.6c-19.9,0-39.9,0-59.8,0c-1.4,0-3,0.4-4.1-0.2c-1.4-0.7-2.4-2.2-3.6-3.3c1.1-1,2.2-2.3,3.5-2.9
		c1.2-0.5,2.7-0.2,4.1-0.2c39.3,0,78.6,0,117.9,0c14.3,0,20.8-6.6,20.8-20.8c0-6.4,0.1-12.9,0-19.3c-0.1-12.4-7.1-19.4-19.5-19.4
		c-39.6,0-79.2,0-118.8,0c-1.7,0-3.5,0.3-5-0.3c-1.2-0.4-2.7-1.9-2.8-2.9c0-1,1.5-2.5,2.7-3c1.3-0.6,3-0.4,4.5-0.4
		c39.6,0,79.2-0.1,118.8,0c16.8,0,26.7,9.9,26.7,26.6c0,8.9,0.5,17.9-0.8,26.6c-1.8,12.1-11.5,19.5-23.7,19.5
		C322.7,494.6,302.4,494.6,282.2,494.6z"/>
	<path id="XMLID_151_" d="M275,352.5c17.3,0,34.7,0,52,0c15.9,0,25.7,10,25.8,26c0,4.6,0,9.2,0,13.8c-0.1,15.5-10.1,25.6-25.7,25.6
		c-24.4,0.1-48.8,0-73.2,0c-10.7,0-21.5,0-32.2,0c-1.5,0-3.2,0.2-4.5-0.4c-1.2-0.5-2.7-2-2.7-3c0-1,1.6-2.4,2.8-2.9
		c1.5-0.5,3.3-0.3,5-0.3c34.2,0,68.4,0,102.6,0c15,0,21.3-6.4,21.3-21.3c0-3.7,0-7.4,0-11c0-13-6.9-20-19.8-20
		c-34.2,0-68.4,0-102.6,0c-1.8,0-3.8,0.4-5.5-0.2c-1.4-0.5-2.5-2.1-3.7-3.1c1.3-1.1,2.4-2.4,3.9-3.1c1.2-0.5,2.7-0.2,4.1-0.2
		C240,352.5,257.5,352.5,275,352.5z"/>
	<path id="XMLID_150_" d="M337.6,483.1c-1.6,0.1-3.2,0.4-4.8,0.4c-35.6,0-71.2,0-106.8,0c-5.8,0-5.4-0.2-5.3-6
		c0.3-13.3,0.3-26.6-0.1-39.9c-0.1-3.9,0.8-4.8,4.3-4.8c36.2,0.1,72.4,0,108.6,0.1c1.4,0,2.7,0.4,4.1,0.6c0,0.5,0,1,0,1.5
		c-2,0.2-4,0.6-6,0.6c-33.9,0-67.8,0-101.7,0c-6.6,0-6.2,0-6.1,6.4c0.2,11.5-0.2,22.9-0.4,34.4c0,2.5-0.8,4.8,3.3,4.8
		c20.1-0.3,40.2-0.3,60.3-0.4c14.6,0,29.2,0,43.7,0c2.3,0,4.7,0.5,7,0.7C337.7,482,337.6,482.6,337.6,483.1z"/>
	<path id="XMLID_149_" d="M323,365.7c-2.1,0.2-4.1,0.6-6.2,0.6c-26.5,0-53.1,0-79.6,0c-3.4,0-6.7-0.3-10.1-0.5
		c-3.4-0.2-3.9,1.3-3.8,4.5c0.4,9.5,0.6,18.9,0.3,28.4c-0.1,5.5-0.5,5.6,5.2,5.6c27,0,54,0,81,0c4.3,0,8.6,0,12.9,0
		c0,0.7,0.1,1.3,0.1,2c-1.5,0.2-2.9,0.7-4.4,0.7c-31,0-62,0-93,0.1c-4.4,0-5.1-1.3-4.9-5.6c0.5-11.1,0.3-22.3-0.1-33.5
		c-0.1-3.4,0.7-4.4,3.9-4.4c31.8,0,63.5,0,95.3,0.1c1.1,0,2.2,0.4,3.3,0.6C323,364.7,323,365.2,323,365.7z"/>
	<path id="XMLID_148_" d="M336,473.5c-36.8,0-72.3,0-108.4,0C230.9,470.9,330.8,470.6,336,473.5z"/>
	<path id="XMLID_147_" d="M334.6,438c-4.5,2.8-103.6,2.5-107.6,0C263.6,438,299.1,438,334.6,438z"/>
	<path id="XMLID_146_" d="M334.6,478.3c-35.5,0-71,0-107,0C230.8,475.6,330.4,475.2,334.6,478.3z"/>
	<path id="XMLID_145_" d="M354.2,457.9c-0.5,5.6-0.7,11.2-1.6,16.5c-0.3,1.9-2.5,4.9-3.9,4.9c-3.3,0-2.7-3-2.6-5.6
		c0.2-10.5,0.2-21,0.1-31.5c0-2.3-0.9-5,2.4-5.5c3.4-0.5,3.9,2.5,4.2,4.8C353.4,447.1,353.7,452.5,354.2,457.9z"/>
	<path id="XMLID_144_" d="M228.1,371.3c4.4-2.8,89.3-2.5,93.3,0C289.6,371.3,258.9,371.3,228.1,371.3z"/>
	<path id="XMLID_143_" d="M319.9,384.5c-4.3,2.7-88.8,2.5-93,0C258.7,384.5,289.3,384.5,319.9,384.5z"/>
	<path id="XMLID_142_" d="M319.9,390.9c-30.6,0-61.2,0-91.9,0c-0.1-0.4-0.1-0.8-0.2-1.2c1.6-0.3,3.2-0.9,4.8-0.9
		c27.9-0.1,55.8-0.1,83.8,0c1.3,0,2.5,0.5,3.8,0.7C320.1,389.9,320,390.4,319.9,390.9z"/>
	<path id="XMLID_141_" d="M228.1,399.2c30.6,0,61.2,0,91.8,0c0.1,0.4,0.2,0.8,0.3,1.1c-1.3,0.3-2.6,0.9-3.8,0.9
		c-27.1,0-54.2,0-81.4,0c-2.3,0-4.6-0.4-7-0.7C228,400.1,228,399.7,228.1,399.2z"/>
	<path id="XMLID_140_" d="M339.5,385c-0.5,4.8-0.6,9.2-1.6,13.5c-0.4,1.7-2.6,3-4.1,4.4c-0.7-1.9-2.2-4-1.9-5.7
		c1.3-8.2,1.4-16.4,0-24.6c-0.3-1.6,1.3-3.4,2.1-5.2c1.3,1.4,3.5,2.6,3.9,4.2C338.8,376.2,339,380.8,339.5,385z"/>
	<path id="XMLID_139_" d="M228.1,452.6c35.4,0,70.8,0,106.2,0c0,0.4,0,0.8,0,1.3c-35.4,0-70.7,0-106.1,0
		C228.1,453.4,228.1,453,228.1,452.6z"/>
	<path id="XMLID_138_" d="M334.2,458.9c-35.4,0-70.7,0-106.1,0c0-0.4,0-0.8,0-1.2c35.4,0,70.7,0,106.1,0
		C334.2,458.1,334.2,458.5,334.2,458.9z"/>
	<path id="XMLID_137_" d="M334.3,443c-6.3,2.8-103.6,2.1-106.6,0C263.5,443,298.9,443,334.3,443z"/>
	<path id="XMLID_136_" d="M228.1,468.1c2.6-1.7,100-2.4,106.2-0.7C332,469.2,232.9,469.8,228.1,468.1z"/>
	<path id="XMLID_135_" d="M228.2,462.5c35.3,0,70.7,0,106,0c0,0.4,0,0.7,0,1.1c-35.3,0-70.7,0-106,0
		C228.2,463.2,228.2,462.8,228.2,462.5z"/>
	<path id="XMLID_134_" d="M335.3,449c-36.3,0-71.5,0-106.9,0C231,446.9,330.1,446.5,335.3,449z"/>
	<path id="XMLID_133_" d="M320.7,380.9c-31.6,0-62.1,0-92.6,0C230.5,378.8,315.2,378.3,320.7,380.9z"/>
	<path id="XMLID_132_" d="M319.6,376.3c-30.4,0-60.8,0-91.2,0c0-0.4,0-0.8,0-1.2c30.4,0,60.8,0,91.2,0
		C319.6,375.5,319.6,375.9,319.6,376.3z"/>
	<path id="XMLID_131_" d="M319.5,395.5c-30.3,0-60.7,0-91,0c0-0.4,0-0.7,0-1.1c30.3,0,60.7,0,91,0
		C319.5,394.8,319.5,395.2,319.5,395.5z"/>
</g>
<text id="XMLID_2_" transform="matrix(1 0 0 1 214.5088 353.0064)" class="st5 st6 st7">Sda</text>
</svg>
